<?xml version="1.0" encoding="UTF-8"?>
<svg width="230px" height="81px" viewBox="0 0 230 81" version="1.1" xmlns="http://www.w3.org/2000/svg" xmlns:xlink="http://www.w3.org/1999/xlink">
    <title>logo-header</title>
    <g id="v03" stroke="none" stroke-width="1" fill="none" fill-rule="evenodd">
        <g id="01" transform="translate(-60.000000, -949.000000)">
            <g id="Group" transform="translate(60.000000, 949.000000)">
                <path d="M228.322219,65.618737 C227.48851,65.4202691 226.635225,65.2241361 225.756606,65.0303381" id="Fill-16" fill="#BE2B33"></path>
                <polygon id="Fill-17" fill="#BE2B33" points="55.024783 65.618737 57.0973094 65.618737 57.0973094 65.030303 55.024783 65.030303"></polygon>
                <path d="M89.3484835,65.0303381 L106.857521,65.0303381 C103.911903,65.1867775 100.997377,65.2626623 98.1185477,65.2626623 C95.1568086,65.2626623 92.2342215,65.1832751 89.3484835,65.0303381" id="Fill-18" fill="#BE2B33"></path>
                <path d="M57.0975397,21.4327757 C57.0975397,17.5381349 60.2757668,14.3147826 64.1184275,14.3147826 C67.9599367,14.3147826 71.1922857,17.5381349 71.1922857,21.4327757 C71.1922857,25.3274166 67.9599367,28.5496015 64.1184275,28.5496015 C60.2757668,28.5496015 57.0975397,25.3274166 57.0975397,21.4327757 M59.8750338,60.8274882 C58.9434448,60.6091735 58.0164619,60.3850215 57.0975397,60.1550323 L57.0975397,60.8274882 L57.0975397,40.009372 L59.1702965,39.533049 L59.6401214,38.1320991 C59.6401214,38.1320991 64.9521363,37.5075089 66.3823385,33.7611353 L71.1922857,33.7611353 L71.1922857,60.8274882 L59.8750338,60.8274882" id="Fill-19" fill="#231F20"></path>
                <path d="M200.948011,48.6392237 L206.005537,37.6265897 L211.00779,48.6392237 L200.948011,48.6392237 Z M184.559414,42.4190059 L179.722982,42.4190059 L179.722982,31.7157483 L184.559414,31.7157483 C188.262739,31.7157483 191.412178,34.1534012 191.412178,37.0673771 C191.412178,39.981353 188.262739,42.4190059 184.559414,42.4190059 Z M167.97736,51.1002258 L159.79688,41.2410405 L167.97736,32.9182304 L167.97736,51.1002258 Z M143.315009,48.7186109 C143.895381,46.9347346 144.209749,45.03528 144.209749,43.0622755 C144.209749,42.276576 144.159082,41.5013837 144.062353,40.7402009 L147.305066,44.6605258 L143.315009,48.7186109 Z M124.50359,54.9154795 C120.635595,54.9154795 117.485005,49.6198887 117.485005,43.0622755 C117.485005,36.5069972 120.635595,31.1273494 124.50359,31.1273494 C128.401524,31.1273494 131.552114,36.5069972 131.552114,43.0622755 C131.552114,49.6198887 128.401524,54.9154795 124.50359,54.9154795 Z M213.217579,25.2141731 L204.70661,25.2141731 L201.613596,31.9013742 C199.148167,27.9401882 193.937487,25.2141731 187.931098,25.2141731 C186.745021,25.2141731 180.68451,25.2141731 175.549831,25.2141731 C171.471107,25.2141731 167.97736,25.2141731 167.97736,25.2141731 L166.484975,25.2141731 L155.62373,36.1987882 L146.531237,25.2141731 L131.264231,25.2141731 C129.154626,24.4728371 126.876896,24.0665616 124.50359,24.0665616 C117.461974,24.0665616 111.262129,27.6529935 107.783352,33.0501532 L107.783352,25.2141731 L101.372776,25.2141731 L101.372776,46.0614758 L84.126288,25.2141731 L74.5651216,25.2141731 L74.5651216,60.8274882 L80.9768492,60.8274882 L80.9768492,39.925315 L98.277459,60.8274882 L107.783352,60.8274882 L107.783352,53.039374 C111.262129,58.412017 117.461974,61.9762672 124.50359,61.9762672 C126.960958,61.9762672 129.313537,61.5431402 131.485325,60.7551058 L131.412779,60.8274882 L140.45115,60.8274882 L151.478216,49.6747592 L159.898215,59.7884504 C162.627344,59.6927188 165.320777,59.6343459 167.97736,59.6109967 C170.369091,59.5911499 172.728579,59.5981547 175.054673,59.6320109 C176.626513,59.6541926 178.183384,59.6903839 179.722982,59.7359147 L179.722982,48.9182462 C179.722982,48.9182462 185.913615,48.9182462 187.931098,48.9182462 C190.177736,48.9182462 192.313827,48.5376548 194.235734,47.8523568 L188.55638,60.1305156 C190.914717,60.2717781 193.22584,60.4363897 195.483994,60.6255179 L197.96209,55.138464 L214.047834,55.138464 L216.645689,60.8274882 L229.634965,60.8274882 L213.217579,25.2141731 L213.217579,25.2141731 Z" id="Fill-20" fill="#231F20"></path>
                <path d="M37.2554998,2.99510698 L37.2554998,4.28514839 C37.5595041,8.73900176 36.8133117,8.85224522 36.8133117,8.85224522 L36.8133117,27.595788 L39.9086285,29.6703614 L44.9385182,29.6703614 L44.9385182,27.0634271 C43.2250393,25.6356256 45.1596123,24.7670366 45.1596123,24.7670366 L45.1596123,23.8132232 L44.5228153,23.8132232 L44.5228153,23.2540107 L43.7777744,23.2540107 L43.7777744,22.2733457 L46.7625442,22.2733457 L46.7625442,11.5409017 C44.7174242,11.7662211 45.0490653,6.24647832 45.0490653,6.24647832 C42.1115083,3.16905827 38.2630899,2.99277207 37.4213204,2.99277207 C37.3142279,2.99277207 37.2554998,2.99510698 37.2554998,2.99510698 M44.1094155,81 L44.1094155,80.2166355 C41.4839236,79.2920085 43.943595,76.9652642 43.943595,76.9652642 L43.943595,73.5481137 L37.9464187,73.5481137 L37.9464187,70.7170274 L39.9362652,70.7170274 L39.9362652,32.8365083 C34.4089139,31.6025049 34.2430933,27.3728035 34.2430933,27.3728035 L34.2430933,8.37475478 C33.1652598,8.06654579 33.7732684,3.36052143 33.7732684,3.36052143 C23.7687625,3.21925897 21.1709073,23.9252992 21.1709073,23.9252992 C18.1032273,41.0729265 7.96053751,49.0595087 7.96053751,49.0595087 C3.17937857,52.6447731 2.43318614,58.2485729 2.43318614,58.2485729 C2.18445533,61.8081532 0.664433697,61.2477732 0.2775191,61.1065108 L0,60.2671083 C0.0564250453,54.0468905 3.42810939,50.0950442 3.42810939,50.0950442 C6.35760562,47.7145967 11.6362262,40.317581 11.6362262,40.317581 C17.6334024,32.6672268 18.2690478,23.3088812 18.2690478,23.3088812 C21.3367278,7.8704128 25.6480619,4.31316739 25.6480619,4.31316739 C37.9464187,-5.82971022 49.6367669,5.09769936 49.6367669,5.09769936 C50.3829593,10.2531952 48.3931128,11.6261261 48.3931128,11.6261261 L48.3931128,22.3842542 L51.0186047,22.3842542 L51.0186047,23.3088812 L50.3829593,23.3088812 L50.3829593,23.9252992 L49.6367669,23.9252992 L49.6367669,24.7109986 C52.0688015,25.1861541 50.2447756,26.8964805 50.2447756,26.8964805 L50.2447756,29.8664944 L57.1816015,29.8664944 L57.1816015,31.9118813 C55.1641183,32.2189229 55.6339431,33.1435498 55.6339431,33.1435498 C58.7016232,34.4044048 60.2492815,32.3590179 60.2492815,32.3590179 L59.6401214,32.3590179 L59.6401214,29.8664944 L61.1612945,29.8664944 L61.1612945,29.080795 L66.3846416,29.080795 L66.3846416,29.7263994 L67.7941162,29.7263994 L67.7941162,32.5282993 L66.6886459,32.5282993 C66.0806372,37.3744187 59.6401214,38.1320991 59.6401214,38.1320991 L59.171448,39.533049 L55.0259345,40.4845275 L55.0259345,66.6542725 L57.0975397,66.6542725 L57.0975397,69.2600394 C58.112039,69.3522687 59.117326,69.4351582 60.1110978,69.5122104 L60.1110978,69.6242864 L55.0259345,69.6242864 L55.0259345,70.8851414 L57.3197853,70.8851414 L57.3197853,73.5481137 L50.7146004,73.5481137 L50.7146004,77.1333781 C53.0084512,79.3200275 50.5487799,80.3847495 50.5487799,80.3847495 L50.5487799,81 L44.1094155,81" id="Fill-21" fill="#E0001B"></path>
                <path d="M102.644067,68.6167699 C102.644067,68.6167699 83.1048795,71.6136354 57.0975397,69.2600394 L57.0975397,60.1550323 C76.7207886,65.0863761 99.4658396,67.1025765 123.869096,63.2371221 C166.870738,56.3993189 206.667668,60.3231462 229.137503,65.81487 L229.137503,80.915943 C207.359738,70.3819669 173.17307,60.6862258 102.644067,68.6167699" id="Fill-39" fill="#E0001B"></path>
                <path d="M223.439725,30.0626274 L224.527922,30.0626274 C225.171628,30.0626274 225.605756,29.9458816 225.605756,29.22089 C225.605756,28.5682808 224.921746,28.4958984 224.393193,28.4958984 L223.439725,28.4958984 L223.439725,30.0626274 M225.574664,33.8019963 L224.083431,31.1110049 L223.439725,31.1110049 L223.439725,33.8019963 L222.092433,33.8019963 L222.092433,27.4440185 L224.456527,27.4440185 C226.042186,27.4440185 226.953048,27.9168391 226.953048,29.345808 C226.953048,30.5027592 226.269038,30.9650727 225.294842,31.0386225 L226.953048,33.8019963 L225.574664,33.8019963 M220.340953,30.6510264 C220.340953,33.2976543 222.092433,35.1037123 224.362102,35.1037123 C226.590315,35.1037123 228.372886,33.2976543 228.372886,30.6510264 C228.372886,28.0125707 226.590315,26.1948381 224.362102,26.1948381 C222.092433,26.1948381 220.340953,28.0125707 220.340953,30.6510264 M218.713839,30.6510264 C218.713839,27.4965541 221.254118,24.9223086 224.362102,24.9223086 C227.472388,24.9223086 230,27.4965541 230,30.6510264 C230,33.8019963 227.472388,36.3645672 224.362102,36.3645672 C221.254118,36.3645672 218.713839,33.8019963 218.713839,30.6510264" id="Fill-43" fill="#231F20"></path>
            </g>
        </g>
    </g>
</svg>